<?xml version="1.0" encoding="UTF-8" standalone="no"?>
<!DOCTYPE svg PUBLIC "-//W3C//DTD SVG 1.1//EN"
 "http://www.w3.org/Graphics/SVG/1.1/DTD/svg11.dtd">
<!-- Generated by graphviz version 2.36.0 (20140111.2315)
 -->
<!-- Title: G Pages: 1 -->
<svg width="742pt" height="2166pt"
 viewBox="0.00 0.00 742.00 2166.00" xmlns="http://www.w3.org/2000/svg" xmlns:xlink="http://www.w3.org/1999/xlink">
<g id="graph0" class="graph" transform="scale(1 1) rotate(0) translate(4 2162)">
<title>G</title>
<polygon fill="white" stroke="none" points="-4,4 -4,-2162 738,-2162 738,4 -4,4"/>
<g id="clust1" class="cluster"><title>cluster_Global</title>
<path fill="none" stroke="gray" d="M20,-98C20,-98 714,-98 714,-98 720,-98 726,-104 726,-110 726,-110 726,-2138 726,-2138 726,-2144 720,-2150 714,-2150 714,-2150 20,-2150 20,-2150 14,-2150 8,-2144 8,-2138 8,-2138 8,-110 8,-110 8,-104 14,-98 20,-98"/>
<text text-anchor="middle" x="367" y="-2137.2" font-family="Times,serif" font-size="11.00" fill="gray">Global</text>
</g>
<g id="clust2" class="cluster"><title>cluster_\Pluginkollektiv</title>
<path fill="none" stroke="gray" d="M28,-106C28,-106 706,-106 706,-106 712,-106 718,-112 718,-118 718,-118 718,-2110 718,-2110 718,-2116 712,-2122 706,-2122 706,-2122 28,-2122 28,-2122 22,-2122 16,-2116 16,-2110 16,-2110 16,-118 16,-118 16,-112 22,-106 28,-106"/>
<text text-anchor="middle" x="367" y="-2109.2" font-family="Times,serif" font-size="11.00" fill="gray">Pluginkollektiv</text>
</g>
<g id="clust3" class="cluster"><title>cluster_\Pluginkollektiv\AntispamBee</title>
<path fill="none" stroke="gray" d="M36,-114C36,-114 698,-114 698,-114 704,-114 710,-120 710,-126 710,-126 710,-2082 710,-2082 710,-2088 704,-2094 698,-2094 698,-2094 36,-2094 36,-2094 30,-2094 24,-2088 24,-2082 24,-2082 24,-126 24,-126 24,-120 30,-114 36,-114"/>
<text text-anchor="middle" x="367" y="-2081.2" font-family="Times,serif" font-size="11.00" fill="gray">AntispamBee</text>
</g>
<g id="clust4" class="cluster"><title>cluster_\Pluginkollektiv\AntispamBee\Helper</title>
<path fill="none" stroke="gray" d="M585,-1994C585,-1994 631,-1994 631,-1994 637,-1994 643,-2000 643,-2006 643,-2006 643,-2054 643,-2054 643,-2060 637,-2066 631,-2066 631,-2066 585,-2066 585,-2066 579,-2066 573,-2060 573,-2054 573,-2054 573,-2006 573,-2006 573,-2000 579,-1994 585,-1994"/>
<text text-anchor="middle" x="608" y="-2053.2" font-family="Times,serif" font-size="11.00" fill="gray">Helper</text>
</g>
<g id="clust5" class="cluster"><title>cluster_\Pluginkollektiv\AntispamBee\Filter</title>
<path fill="none" stroke="gray" d="M44,-1616C44,-1616 675,-1616 675,-1616 681,-1616 687,-1622 687,-1628 687,-1628 687,-1974 687,-1974 687,-1980 681,-1986 675,-1986 675,-1986 44,-1986 44,-1986 38,-1986 32,-1980 32,-1974 32,-1974 32,-1628 32,-1628 32,-1622 38,-1616 44,-1616"/>
<text text-anchor="middle" x="359.5" y="-1973.2" font-family="Times,serif" font-size="11.00" fill="gray">Filter</text>
</g>
<g id="clust6" class="cluster"><title>cluster_\Pluginkollektiv\AntispamBee\Filter\Preparer</title>
<path fill="none" stroke="gray" d="M278,-1886C278,-1886 667,-1886 667,-1886 673,-1886 679,-1892 679,-1898 679,-1898 679,-1946 679,-1946 679,-1952 673,-1958 667,-1958 667,-1958 278,-1958 278,-1958 272,-1958 266,-1952 266,-1946 266,-1946 266,-1898 266,-1898 266,-1892 272,-1886 278,-1886"/>
<text text-anchor="middle" x="472.5" y="-1945.2" font-family="Times,serif" font-size="11.00" fill="gray">Preparer</text>
</g>
<g id="clust7" class="cluster"><title>cluster_\Pluginkollektiv\AntispamBee\Exceptions</title>
<path fill="none" stroke="gray" d="M553,-1214C553,-1214 663,-1214 663,-1214 669,-1214 675,-1220 675,-1226 675,-1226 675,-1328 675,-1328 675,-1334 669,-1340 663,-1340 663,-1340 553,-1340 553,-1340 547,-1340 541,-1334 541,-1328 541,-1328 541,-1226 541,-1226 541,-1220 547,-1214 553,-1214"/>
<text text-anchor="middle" x="608" y="-1327.2" font-family="Times,serif" font-size="11.00" fill="gray">Exceptions</text>
</g>
<g id="clust8" class="cluster"><title>cluster_\Pluginkollektiv\AntispamBee\Config</title>
<path fill="none" stroke="gray" d="M285,-1482C285,-1482 670,-1482 670,-1482 676,-1482 682,-1488 682,-1494 682,-1494 682,-1596 682,-1596 682,-1602 676,-1608 670,-1608 670,-1608 285,-1608 285,-1608 279,-1608 273,-1602 273,-1596 273,-1596 273,-1494 273,-1494 273,-1488 279,-1482 285,-1482"/>
<text text-anchor="middle" x="477.5" y="-1595.2" font-family="Times,serif" font-size="11.00" fill="gray">Config</text>
</g>
<g id="clust9" class="cluster"><title>cluster_\Pluginkollektiv\AntispamBee\Entity</title>
<path fill="none" stroke="gray" d="M292,-1348C292,-1348 673,-1348 673,-1348 679,-1348 685,-1354 685,-1360 685,-1360 685,-1462 685,-1462 685,-1468 679,-1474 673,-1474 673,-1474 292,-1474 292,-1474 286,-1474 280,-1468 280,-1462 280,-1462 280,-1360 280,-1360 280,-1354 286,-1348 292,-1348"/>
<text text-anchor="middle" x="482.5" y="-1461.2" font-family="Times,serif" font-size="11.00" fill="gray">Entity</text>
</g>
<g id="clust10" class="cluster"><title>cluster_\Pluginkollektiv\AntispamBee\Settings</title>
<path fill="none" stroke="gray" d="M570,-1134C570,-1134 646,-1134 646,-1134 652,-1134 658,-1140 658,-1146 658,-1146 658,-1194 658,-1194 658,-1200 652,-1206 646,-1206 646,-1206 570,-1206 570,-1206 564,-1206 558,-1200 558,-1194 558,-1194 558,-1146 558,-1146 558,-1140 564,-1134 570,-1134"/>
<text text-anchor="middle" x="608" y="-1193.2" font-family="Times,serif" font-size="11.00" fill="gray">Settings</text>
</g>
<g id="clust11" class="cluster"><title>cluster_\Pluginkollektiv\AntispamBee\Field</title>
<path fill="none" stroke="gray" d="M288,-1000C288,-1000 643,-1000 643,-1000 649,-1000 655,-1006 655,-1012 655,-1012 655,-1114 655,-1114 655,-1120 649,-1126 643,-1126 643,-1126 288,-1126 288,-1126 282,-1126 276,-1120 276,-1114 276,-1114 276,-1012 276,-1012 276,-1006 282,-1000 288,-1000"/>
<text text-anchor="middle" x="465.5" y="-1113.2" font-family="Times,serif" font-size="11.00" fill="gray">Field</text>
</g>
<g id="clust12" class="cluster"><title>cluster_\Pluginkollektiv\AntispamBee\Handler</title>
<path fill="none" stroke="gray" d="M268,-920C268,-920 673,-920 673,-920 679,-920 685,-926 685,-932 685,-932 685,-980 685,-980 685,-986 679,-992 673,-992 673,-992 268,-992 268,-992 262,-992 256,-986 256,-980 256,-980 256,-932 256,-932 256,-926 262,-920 268,-920"/>
<text text-anchor="middle" x="470.5" y="-979.2" font-family="Times,serif" font-size="11.00" fill="gray">Handler</text>
</g>
<g id="clust13" class="cluster"><title>cluster_\Pluginkollektiv\AntispamBee\Repository</title>
<path fill="none" stroke="gray" d="M526,-786C526,-786 690,-786 690,-786 696,-786 702,-792 702,-798 702,-798 702,-900 702,-900 702,-906 696,-912 690,-912 690,-912 526,-912 526,-912 520,-912 514,-906 514,-900 514,-900 514,-798 514,-798 514,-792 520,-786 526,-786"/>
<text text-anchor="middle" x="608" y="-899.2" font-family="Times,serif" font-size="11.00" fill="gray">Repository</text>
</g>
<g id="clust14" class="cluster"><title>cluster_\Pluginkollektiv\AntispamBee\PostProcessor</title>
<path fill="none" stroke="gray" d="M261,-490C261,-490 680,-490 680,-490 686,-490 692,-496 692,-502 692,-502 692,-766 692,-766 692,-772 686,-778 680,-778 680,-778 261,-778 261,-778 255,-778 249,-772 249,-766 249,-766 249,-502 249,-502 249,-496 255,-490 261,-490"/>
<text text-anchor="middle" x="470.5" y="-765.2" font-family="Times,serif" font-size="11.00" fill="gray">PostProcessor</text>
</g>
<g id="clust15" class="cluster"><title>cluster_\Pluginkollektiv\AntispamBee\Option</title>
<path fill="none" stroke="gray" d="M285,-302C285,-302 656,-302 656,-302 662,-302 668,-308 668,-314 668,-314 668,-470 668,-470 668,-476 662,-482 656,-482 656,-482 285,-482 285,-482 279,-482 273,-476 273,-470 273,-470 273,-314 273,-314 273,-308 279,-302 285,-302"/>
<text text-anchor="middle" x="470.5" y="-469.2" font-family="Times,serif" font-size="11.00" fill="gray">Option</text>
</g>
<g id="clust16" class="cluster"><title>cluster_\Pluginkollektiv\AntispamBee\Logger</title>
<path fill="none" stroke="gray" d="M285,-222C285,-222 646,-222 646,-222 652,-222 658,-228 658,-234 658,-234 658,-282 658,-282 658,-288 652,-294 646,-294 646,-294 285,-294 285,-294 279,-294 273,-288 273,-282 273,-282 273,-234 273,-234 273,-228 279,-222 285,-222"/>
<text text-anchor="middle" x="465.5" y="-281.2" font-family="Times,serif" font-size="11.00" fill="gray">Logger</text>
</g>
<!-- \\Pluginkollektiv\\AntispamBee\\Helper\\IP -->
<g id="node1" class="node"><title>\\Pluginkollektiv\\AntispamBee\\Helper\\IP</title>
<polygon fill="none" stroke="black" points="635,-2038 581,-2038 581,-2002 635,-2002 635,-2038"/>
<text text-anchor="middle" x="608" y="-2017.2" font-family="Courier,monospace" font-size="11.00">IP</text>
</g>
<!-- \\Pluginkollektiv\\AntispamBee\\Filter\\Preparer\\TimeSpamPreparer -->
<g id="node2" class="node"><title>\\Pluginkollektiv\\AntispamBee\\Filter\\Preparer\\TimeSpamPreparer</title>
<polygon fill="none" stroke="black" points="670.5,-1930 545.5,-1930 545.5,-1894 670.5,-1894 670.5,-1930"/>
<text text-anchor="middle" x="608" y="-1909.2" font-family="Courier,monospace" font-size="11.00">TimeSpamPreparer</text>
</g>
<!-- \\Pluginkollektiv\\AntispamBee\\Filter\\Preparer\\PreparerInterface -->
<g id="node3" class="node"><title>\\Pluginkollektiv\\AntispamBee\\Filter\\Preparer\\PreparerInterface</title>
<polygon fill="none" stroke="black" points="405.5,-1930 274.5,-1930 274.5,-1894 405.5,-1894 405.5,-1930"/>
<text text-anchor="middle" x="340" y="-1909.2" font-family="Courier,monospace" font-size="11.00">PreparerInterface</text>
</g>
<!-- \\Pluginkollektiv\\AntispamBee\\Filter\\Preparer\\TimeSpamPreparer&#45;&gt;\\Pluginkollektiv\\AntispamBee\\Filter\\Preparer\\PreparerInterface -->
<g id="edge5" class="edge"><title>\\Pluginkollektiv\\AntispamBee\\Filter\\Preparer\\TimeSpamPreparer&#45;&gt;\\Pluginkollektiv\\AntispamBee\\Filter\\Preparer\\PreparerInterface</title>
<path fill="none" stroke="black" stroke-dasharray="1,5" d="M545.306,-1912C506.68,-1912 456.663,-1912 415.786,-1912"/>
<polygon fill="none" stroke="black" points="415.603,-1908.5 405.603,-1912 415.603,-1915.5 415.603,-1908.5"/>
</g>
<!-- \\Pluginkollektiv\\AntispamBee\\Filter\\BBCodeSpam -->
<g id="node4" class="node"><title>\\Pluginkollektiv\\AntispamBee\\Filter\\BBCodeSpam</title>
<polygon fill="none" stroke="black" points="650,-1660 566,-1660 566,-1624 650,-1624 650,-1660"/>
<text text-anchor="middle" x="608" y="-1639.2" font-family="Courier,monospace" font-size="11.00">BBCodeSpam</text>
</g>
<!-- \\Pluginkollektiv\\AntispamBee\\Filter\\SpamFilterInterface -->
<g id="node11" class="node"><title>\\Pluginkollektiv\\AntispamBee\\Filter\\SpamFilterInterface</title>
<polygon fill="none" stroke="black" points="412.5,-1768 267.5,-1768 267.5,-1732 412.5,-1732 412.5,-1768"/>
<text text-anchor="middle" x="340" y="-1747.2" font-family="Courier,monospace" font-size="11.00">SpamFilterInterface</text>
</g>
<!-- \\Pluginkollektiv\\AntispamBee\\Filter\\BBCodeSpam&#45;&gt;\\Pluginkollektiv\\AntispamBee\\Filter\\SpamFilterInterface -->
<g id="edge1" class="edge"><title>\\Pluginkollektiv\\AntispamBee\\Filter\\BBCodeSpam&#45;&gt;\\Pluginkollektiv\\AntispamBee\\Filter\\SpamFilterInterface</title>
<path fill="none" stroke="black" stroke-dasharray="1,5" d="M565.807,-1652.48C549.489,-1657.01 530.677,-1662.72 514,-1669 468.895,-1685.99 419.245,-1709.79 384.748,-1727.2"/>
<polygon fill="none" stroke="black" points="382.768,-1724.28 375.437,-1731.93 385.938,-1730.52 382.768,-1724.28"/>
</g>
<!-- \\Pluginkollektiv\\AntispamBee\\Filter\\NullFilter -->
<g id="node5" class="node"><title>\\Pluginkollektiv\\AntispamBee\\Filter\\NullFilter</title>
<polygon fill="none" stroke="black" points="382,-1876 298,-1876 298,-1840 382,-1840 382,-1876"/>
<text text-anchor="middle" x="340" y="-1855.2" font-family="Courier,monospace" font-size="11.00">NullFilter</text>
</g>
<!-- \\Pluginkollektiv\\AntispamBee\\Filter\\FilterInterface -->
<g id="node12" class="node"><title>\\Pluginkollektiv\\AntispamBee\\Filter\\FilterInterface</title>
<polygon fill="none" stroke="black" points="158,-1822 40,-1822 40,-1786 158,-1786 158,-1822"/>
<text text-anchor="middle" x="99" y="-1801.2" font-family="Courier,monospace" font-size="11.00">FilterInterface</text>
</g>
<!-- \\Pluginkollektiv\\AntispamBee\\Filter\\NullFilter&#45;&gt;\\Pluginkollektiv\\AntispamBee\\Filter\\FilterInterface -->
<g id="edge7" class="edge"><title>\\Pluginkollektiv\\AntispamBee\\Filter\\NullFilter&#45;&gt;\\Pluginkollektiv\\AntispamBee\\Filter\\FilterInterface</title>
<path fill="none" stroke="black" stroke-dasharray="1,5" d="M297.914,-1848.72C262.33,-1840.68 210.136,-1828.88 168.281,-1819.43"/>
<polygon fill="none" stroke="black" points="168.953,-1815.99 158.428,-1817.2 167.41,-1822.82 168.953,-1815.99"/>
</g>
<!-- \\Pluginkollektiv\\AntispamBee\\Filter\\ValidGravatar -->
<g id="node6" class="node"><title>\\Pluginkollektiv\\AntispamBee\\Filter\\ValidGravatar</title>
<polygon fill="none" stroke="black" points="660,-1876 556,-1876 556,-1840 660,-1840 660,-1876"/>
<text text-anchor="middle" x="608" y="-1855.2" font-family="Courier,monospace" font-size="11.00">ValidGravatar</text>
</g>
<!-- \\Pluginkollektiv\\AntispamBee\\Filter\\NoSpamFilterInterface -->
<g id="node10" class="node"><title>\\Pluginkollektiv\\AntispamBee\\Filter\\NoSpamFilterInterface</title>
<polygon fill="none" stroke="black" points="419,-1822 261,-1822 261,-1786 419,-1786 419,-1822"/>
<text text-anchor="middle" x="340" y="-1801.2" font-family="Courier,monospace" font-size="11.00">NoSpamFilterInterface</text>
</g>
<!-- \\Pluginkollektiv\\AntispamBee\\Filter\\ValidGravatar&#45;&gt;\\Pluginkollektiv\\AntispamBee\\Filter\\NoSpamFilterInterface -->
<g id="edge8" class="edge"><title>\\Pluginkollektiv\\AntispamBee\\Filter\\ValidGravatar&#45;&gt;\\Pluginkollektiv\\AntispamBee\\Filter\\NoSpamFilterInterface</title>
<path fill="none" stroke="black" stroke-dasharray="1,5" d="M555.713,-1847.59C519.863,-1840.31 471.081,-1830.41 429.074,-1821.88"/>
<polygon fill="none" stroke="black" points="429.609,-1818.42 419.112,-1819.86 428.216,-1825.28 429.609,-1818.42"/>
</g>
<!-- \\Pluginkollektiv\\AntispamBee\\Filter\\DbSpam -->
<g id="node7" class="node"><title>\\Pluginkollektiv\\AntispamBee\\Filter\\DbSpam</title>
<polygon fill="none" stroke="black" points="636.5,-1822 579.5,-1822 579.5,-1786 636.5,-1786 636.5,-1822"/>
<text text-anchor="middle" x="608" y="-1801.2" font-family="Courier,monospace" font-size="11.00">DbSpam</text>
</g>
<!-- \\Pluginkollektiv\\AntispamBee\\Filter\\DbSpam&#45;&gt;\\Pluginkollektiv\\AntispamBee\\Filter\\SpamFilterInterface -->
<g id="edge9" class="edge"><title>\\Pluginkollektiv\\AntispamBee\\Filter\\DbSpam&#45;&gt;\\Pluginkollektiv\\AntispamBee\\Filter\\SpamFilterInterface</title>
<path fill="none" stroke="black" stroke-dasharray="1,5" d="M579.036,-1798.32C542.257,-1790.86 476.057,-1777.42 422.79,-1766.6"/>
<polygon fill="none" stroke="black" points="423.16,-1763.11 412.664,-1764.55 421.768,-1769.97 423.16,-1763.11"/>
</g>
<!-- \\Pluginkollektiv\\AntispamBee\\Filter\\FilterFactory -->
<g id="node8" class="node"><title>\\Pluginkollektiv\\AntispamBee\\Filter\\FilterFactory</title>
<polygon fill="none" stroke="black" points="660,-1714 556,-1714 556,-1678 660,-1678 660,-1714"/>
<text text-anchor="middle" x="608" y="-1693.2" font-family="Courier,monospace" font-size="11.00">FilterFactory</text>
</g>
<!-- \\Pluginkollektiv\\AntispamBee\\Filter\\CountrySpam -->
<g id="node9" class="node"><title>\\Pluginkollektiv\\AntispamBee\\Filter\\CountrySpam</title>
<polygon fill="none" stroke="black" points="653.5,-1768 562.5,-1768 562.5,-1732 653.5,-1732 653.5,-1768"/>
<text text-anchor="middle" x="608" y="-1747.2" font-family="Courier,monospace" font-size="11.00">CountrySpam</text>
</g>
<!-- \\Pluginkollektiv\\AntispamBee\\Filter\\CountrySpam&#45;&gt;\\Pluginkollektiv\\AntispamBee\\Filter\\SpamFilterInterface -->
<g id="edge13" class="edge"><title>\\Pluginkollektiv\\AntispamBee\\Filter\\CountrySpam&#45;&gt;\\Pluginkollektiv\\AntispamBee\\Filter\\SpamFilterInterface</title>
<path fill="none" stroke="black" stroke-dasharray="1,5" d="M562.478,-1750C524.459,-1750 468.788,-1750 422.773,-1750"/>
<polygon fill="none" stroke="black" points="422.511,-1746.5 412.511,-1750 422.511,-1753.5 422.511,-1746.5"/>
</g>
<!-- \\Pluginkollektiv\\AntispamBee\\Filter\\NoSpamFilterInterface&#45;&gt;\\Pluginkollektiv\\AntispamBee\\Filter\\FilterInterface -->
<g id="edge22" class="edge"><title>\\Pluginkollektiv\\AntispamBee\\Filter\\NoSpamFilterInterface&#45;&gt;\\Pluginkollektiv\\AntispamBee\\Filter\\FilterInterface</title>
<path fill="none" stroke="black" d="M260.742,-1804C231.037,-1804 197.456,-1804 168.698,-1804"/>
<polygon fill="none" stroke="black" points="168.337,-1800.5 158.337,-1804 168.337,-1807.5 168.337,-1800.5"/>
</g>
<!-- \\Pluginkollektiv\\AntispamBee\\Filter\\SpamFilterInterface&#45;&gt;\\Pluginkollektiv\\AntispamBee\\Filter\\FilterInterface -->
<g id="edge23" class="edge"><title>\\Pluginkollektiv\\AntispamBee\\Filter\\SpamFilterInterface&#45;&gt;\\Pluginkollektiv\\AntispamBee\\Filter\\FilterInterface</title>
<path fill="none" stroke="black" d="M267.292,-1766.2C235.778,-1773.32 198.955,-1781.64 167.891,-1788.66"/>
<polygon fill="none" stroke="black" points="167.005,-1785.27 158.022,-1790.89 168.548,-1792.1 167.005,-1785.27"/>
</g>
<!-- \\Pluginkollektiv\\AntispamBee\\Exceptions\\InvalidArgument -->
<g id="node13" class="node"><title>\\Pluginkollektiv\\AntispamBee\\Exceptions\\InvalidArgument</title>
<polygon fill="none" stroke="black" points="667,-1312 549,-1312 549,-1276 667,-1276 667,-1312"/>
<text text-anchor="middle" x="608" y="-1291.2" font-family="Courier,monospace" font-size="11.00">InvalidArgument</text>
</g>
<!-- \\InvalidArgumentException -->
<g id="node43" class="node"><title>\\InvalidArgumentException</title>
<ellipse fill="none" stroke="black" cx="340" cy="-72" rx="109.681" ry="18"/>
<text text-anchor="middle" x="340" y="-68.3" font-family="Times,serif" font-size="14.00" fill="gray">\InvalidArgumentException</text>
</g>
<!-- \\Pluginkollektiv\\AntispamBee\\Exceptions\\InvalidArgument&#45;&gt;\\InvalidArgumentException -->
<g id="edge2" class="edge"><title>\\Pluginkollektiv\\AntispamBee\\Exceptions\\InvalidArgument&#45;&gt;\\InvalidArgumentException</title>
<path fill="none" stroke="black" d="M548.929,-1288.6C535.556,-1284.57 522.716,-1277.9 514,-1267 368.134,-1084.61 530.328,-437.296 450,-218 432.398,-169.945 393.509,-124.317 367.269,-97.2414"/>
<polygon fill="none" stroke="black" points="369.747,-94.7697 360.232,-90.1102 364.765,-99.6864 369.747,-94.7697"/>
</g>
<!-- \\Pluginkollektiv\\AntispamBee\\Exceptions\\Runtime -->
<g id="node14" class="node"><title>\\Pluginkollektiv\\AntispamBee\\Exceptions\\Runtime</title>
<polygon fill="none" stroke="black" points="640,-1258 576,-1258 576,-1222 640,-1222 640,-1258"/>
<text text-anchor="middle" x="608" y="-1237.2" font-family="Courier,monospace" font-size="11.00">Runtime</text>
</g>
<!-- \\RuntimeException -->
<g id="node44" class="node"><title>\\RuntimeException</title>
<ellipse fill="none" stroke="black" cx="340" cy="-18" rx="79.0865" ry="18"/>
<text text-anchor="middle" x="340" y="-14.3" font-family="Times,serif" font-size="14.00" fill="gray">\RuntimeException</text>
</g>
<!-- \\Pluginkollektiv\\AntispamBee\\Exceptions\\Runtime&#45;&gt;\\RuntimeException -->
<g id="edge12" class="edge"><title>\\Pluginkollektiv\\AntispamBee\\Exceptions\\Runtime&#45;&gt;\\RuntimeException</title>
<path fill="none" stroke="black" d="M575.953,-1238.69C554.957,-1236.02 528.502,-1228.81 514,-1210 355.684,-1004.67 615.326,-244.732 450,-45 443.427,-37.0592 434.919,-31.2468 425.557,-27.0223"/>
<polygon fill="none" stroke="black" points="426.538,-23.6493 415.949,-23.3072 424.013,-30.1782 426.538,-23.6493"/>
</g>
<!-- \\Pluginkollektiv\\AntispamBee\\Config\\AntispamBeeConfig -->
<g id="node15" class="node"><title>\\Pluginkollektiv\\AntispamBee\\Config\\AntispamBeeConfig</title>
<polygon fill="none" stroke="black" points="673.5,-1580 542.5,-1580 542.5,-1544 673.5,-1544 673.5,-1580"/>
<text text-anchor="middle" x="608" y="-1559.2" font-family="Courier,monospace" font-size="11.00">AntispamBeeConfig</text>
</g>
<!-- \\Pluginkollektiv\\AntispamBee\\Config\\ConfigInterface -->
<g id="node17" class="node"><title>\\Pluginkollektiv\\AntispamBee\\Config\\ConfigInterface</title>
<polygon fill="none" stroke="black" points="399,-1553 281,-1553 281,-1517 399,-1517 399,-1553"/>
<text text-anchor="middle" x="340" y="-1532.2" font-family="Courier,monospace" font-size="11.00">ConfigInterface</text>
</g>
<!-- \\Pluginkollektiv\\AntispamBee\\Config\\AntispamBeeConfig&#45;&gt;\\Pluginkollektiv\\AntispamBee\\Config\\ConfigInterface -->
<g id="edge4" class="edge"><title>\\Pluginkollektiv\\AntispamBee\\Config\\AntispamBeeConfig&#45;&gt;\\Pluginkollektiv\\AntispamBee\\Config\\ConfigInterface</title>
<path fill="none" stroke="black" stroke-dasharray="1,5" d="M542.269,-1555.43C502.007,-1551.34 450.293,-1546.09 409.367,-1541.94"/>
<polygon fill="none" stroke="black" points="409.51,-1538.44 399.208,-1540.91 408.803,-1545.4 409.51,-1538.44"/>
</g>
<!-- \\Pluginkollektiv\\AntispamBee\\Config\\GenericWPOption -->
<g id="node16" class="node"><title>\\Pluginkollektiv\\AntispamBee\\Config\\GenericWPOption</title>
<polygon fill="none" stroke="black" points="667,-1526 549,-1526 549,-1490 667,-1490 667,-1526"/>
<text text-anchor="middle" x="608" y="-1505.2" font-family="Courier,monospace" font-size="11.00">GenericWPOption</text>
</g>
<!-- \\Pluginkollektiv\\AntispamBee\\Config\\GenericWPOption&#45;&gt;\\Pluginkollektiv\\AntispamBee\\Config\\ConfigInterface -->
<g id="edge21" class="edge"><title>\\Pluginkollektiv\\AntispamBee\\Config\\GenericWPOption&#45;&gt;\\Pluginkollektiv\\AntispamBee\\Config\\ConfigInterface</title>
<path fill="none" stroke="black" stroke-dasharray="1,5" d="M548.954,-1513.89C507.913,-1518.06 452.734,-1523.66 409.528,-1528.04"/>
<polygon fill="none" stroke="black" points="408.977,-1524.58 399.381,-1529.07 409.684,-1531.55 408.977,-1524.58"/>
</g>
<!-- \\Pluginkollektiv\\AntispamBee\\Entity\\CommentData -->
<g id="node18" class="node"><title>\\Pluginkollektiv\\AntispamBee\\Entity\\CommentData</title>
<polygon fill="none" stroke="black" points="653.5,-1446 562.5,-1446 562.5,-1410 653.5,-1410 653.5,-1446"/>
<text text-anchor="middle" x="608" y="-1425.2" font-family="Courier,monospace" font-size="11.00">CommentData</text>
</g>
<!-- \\Pluginkollektiv\\AntispamBee\\Entity\\DataInterface -->
<g id="node20" class="node"><title>\\Pluginkollektiv\\AntispamBee\\Entity\\DataInterface</title>
<polygon fill="none" stroke="black" points="392,-1446 288,-1446 288,-1410 392,-1410 392,-1446"/>
<text text-anchor="middle" x="340" y="-1425.2" font-family="Courier,monospace" font-size="11.00">DataInterface</text>
</g>
<!-- \\Pluginkollektiv\\AntispamBee\\Entity\\CommentData&#45;&gt;\\Pluginkollektiv\\AntispamBee\\Entity\\DataInterface -->
<g id="edge3" class="edge"><title>\\Pluginkollektiv\\AntispamBee\\Entity\\CommentData&#45;&gt;\\Pluginkollektiv\\AntispamBee\\Entity\\DataInterface</title>
<path fill="none" stroke="black" stroke-dasharray="1,5" d="M562.478,-1428C518.569,-1428 451.115,-1428 402.184,-1428"/>
<polygon fill="none" stroke="black" points="402.039,-1424.5 392.039,-1428 402.039,-1431.5 402.039,-1424.5"/>
</g>
<!-- \\Pluginkollektiv\\AntispamBee\\Entity\\CommentDataFactory -->
<g id="node19" class="node"><title>\\Pluginkollektiv\\AntispamBee\\Entity\\CommentDataFactory</title>
<polygon fill="none" stroke="black" points="677,-1392 539,-1392 539,-1356 677,-1356 677,-1392"/>
<text text-anchor="middle" x="608" y="-1371.2" font-family="Courier,monospace" font-size="11.00">CommentDataFactory</text>
</g>
<!-- \\Pluginkollektiv\\AntispamBee\\Settings\\Controller -->
<g id="node21" class="node"><title>\\Pluginkollektiv\\AntispamBee\\Settings\\Controller</title>
<polygon fill="none" stroke="black" points="650,-1178 566,-1178 566,-1142 650,-1142 650,-1178"/>
<text text-anchor="middle" x="608" y="-1157.2" font-family="Courier,monospace" font-size="11.00">Controller</text>
</g>
<!-- \\Pluginkollektiv\\AntispamBee\\Field\\TextField -->
<g id="node22" class="node"><title>\\Pluginkollektiv\\AntispamBee\\Field\\TextField</title>
<polygon fill="none" stroke="black" points="646.5,-1098 569.5,-1098 569.5,-1062 646.5,-1062 646.5,-1098"/>
<text text-anchor="middle" x="608" y="-1077.2" font-family="Courier,monospace" font-size="11.00">TextField</text>
</g>
<!-- \\Pluginkollektiv\\AntispamBee\\Field\\FieldInterface -->
<g id="node24" class="node"><title>\\Pluginkollektiv\\AntispamBee\\Field\\FieldInterface</title>
<polygon fill="none" stroke="black" points="395.5,-1071 284.5,-1071 284.5,-1035 395.5,-1035 395.5,-1071"/>
<text text-anchor="middle" x="340" y="-1050.2" font-family="Courier,monospace" font-size="11.00">FieldInterface</text>
</g>
<!-- \\Pluginkollektiv\\AntispamBee\\Field\\TextField&#45;&gt;\\Pluginkollektiv\\AntispamBee\\Field\\FieldInterface -->
<g id="edge6" class="edge"><title>\\Pluginkollektiv\\AntispamBee\\Field\\TextField&#45;&gt;\\Pluginkollektiv\\AntispamBee\\Field\\FieldInterface</title>
<path fill="none" stroke="black" stroke-dasharray="1,5" d="M569.453,-1076.19C527.027,-1071.88 457.213,-1064.8 405.909,-1059.59"/>
<polygon fill="none" stroke="black" points="406.211,-1056.1 395.909,-1058.57 405.504,-1063.07 406.211,-1056.1"/>
</g>
<!-- \\Pluginkollektiv\\AntispamBee\\Field\\NullField -->
<g id="node23" class="node"><title>\\Pluginkollektiv\\AntispamBee\\Field\\NullField</title>
<polygon fill="none" stroke="black" points="646.5,-1044 569.5,-1044 569.5,-1008 646.5,-1008 646.5,-1044"/>
<text text-anchor="middle" x="608" y="-1023.2" font-family="Courier,monospace" font-size="11.00">NullField</text>
</g>
<!-- \\Pluginkollektiv\\AntispamBee\\Field\\NullField&#45;&gt;\\Pluginkollektiv\\AntispamBee\\Field\\FieldInterface -->
<g id="edge10" class="edge"><title>\\Pluginkollektiv\\AntispamBee\\Field\\NullField&#45;&gt;\\Pluginkollektiv\\AntispamBee\\Field\\FieldInterface</title>
<path fill="none" stroke="black" stroke-dasharray="1,5" d="M569.453,-1029.81C527.027,-1034.12 457.213,-1041.2 405.909,-1046.41"/>
<polygon fill="none" stroke="black" points="405.504,-1042.93 395.909,-1047.43 406.211,-1049.9 405.504,-1042.93"/>
</g>
<!-- \\Pluginkollektiv\\AntispamBee\\Handler\\CommentSpamHandler -->
<g id="node25" class="node"><title>\\Pluginkollektiv\\AntispamBee\\Handler\\CommentSpamHandler</title>
<polygon fill="none" stroke="black" points="677,-964 539,-964 539,-928 677,-928 677,-964"/>
<text text-anchor="middle" x="608" y="-943.2" font-family="Courier,monospace" font-size="11.00">CommentSpamHandler</text>
</g>
<!-- \\Pluginkollektiv\\AntispamBee\\Handler\\SpamHandlerInterface -->
<g id="node26" class="node"><title>\\Pluginkollektiv\\AntispamBee\\Handler\\SpamHandlerInterface</title>
<polygon fill="none" stroke="black" points="416,-964 264,-964 264,-928 416,-928 416,-964"/>
<text text-anchor="middle" x="340" y="-943.2" font-family="Courier,monospace" font-size="11.00">SpamHandlerInterface</text>
</g>
<!-- \\Pluginkollektiv\\AntispamBee\\Handler\\CommentSpamHandler&#45;&gt;\\Pluginkollektiv\\AntispamBee\\Handler\\SpamHandlerInterface -->
<g id="edge11" class="edge"><title>\\Pluginkollektiv\\AntispamBee\\Handler\\CommentSpamHandler&#45;&gt;\\Pluginkollektiv\\AntispamBee\\Handler\\SpamHandlerInterface</title>
<path fill="none" stroke="black" stroke-dasharray="1,5" d="M538.844,-946C504.513,-946 462.55,-946 426.118,-946"/>
<polygon fill="none" stroke="black" points="426,-942.5 416,-946 426,-949.5 426,-942.5"/>
</g>
<!-- \\Pluginkollektiv\\AntispamBee\\Repository\\FilterRepository -->
<g id="node27" class="node"><title>\\Pluginkollektiv\\AntispamBee\\Repository\\FilterRepository</title>
<polygon fill="none" stroke="black" points="670.5,-884 545.5,-884 545.5,-848 670.5,-848 670.5,-884"/>
<text text-anchor="middle" x="608" y="-863.2" font-family="Courier,monospace" font-size="11.00">FilterRepository</text>
</g>
<!-- \\Pluginkollektiv\\AntispamBee\\Repository\\PostProcessorRepository -->
<g id="node28" class="node"><title>\\Pluginkollektiv\\AntispamBee\\Repository\\PostProcessorRepository</title>
<polygon fill="none" stroke="black" points="694,-830 522,-830 522,-794 694,-794 694,-830"/>
<text text-anchor="middle" x="608" y="-809.2" font-family="Courier,monospace" font-size="11.00">PostProcessorRepository</text>
</g>
<!-- \\Pluginkollektiv\\AntispamBee\\PostProcessor\\PostProcessorFactory -->
<g id="node29" class="node"><title>\\Pluginkollektiv\\AntispamBee\\PostProcessor\\PostProcessorFactory</title>
<polygon fill="none" stroke="black" points="684,-750 532,-750 532,-714 684,-714 684,-750"/>
<text text-anchor="middle" x="608" y="-729.2" font-family="Courier,monospace" font-size="11.00">PostProcessorFactory</text>
</g>
<!-- \\Pluginkollektiv\\AntispamBee\\PostProcessor\\RestInPeace -->
<g id="node30" class="node"><title>\\Pluginkollektiv\\AntispamBee\\PostProcessor\\RestInPeace</title>
<polygon fill="none" stroke="black" points="653.5,-588 562.5,-588 562.5,-552 653.5,-552 653.5,-588"/>
<text text-anchor="middle" x="608" y="-567.2" font-family="Courier,monospace" font-size="11.00">RestInPeace</text>
</g>
<!-- \\Pluginkollektiv\\AntispamBee\\PostProcessor\\PostProcessorInterface -->
<g id="node34" class="node"><title>\\Pluginkollektiv\\AntispamBee\\PostProcessor\\PostProcessorInterface</title>
<polygon fill="none" stroke="black" points="422.5,-615 257.5,-615 257.5,-579 422.5,-579 422.5,-615"/>
<text text-anchor="middle" x="340" y="-594.2" font-family="Courier,monospace" font-size="11.00">PostProcessorInterface</text>
</g>
<!-- \\Pluginkollektiv\\AntispamBee\\PostProcessor\\RestInPeace&#45;&gt;\\Pluginkollektiv\\AntispamBee\\PostProcessor\\PostProcessorInterface -->
<g id="edge14" class="edge"><title>\\Pluginkollektiv\\AntispamBee\\PostProcessor\\RestInPeace&#45;&gt;\\Pluginkollektiv\\AntispamBee\\PostProcessor\\PostProcessorInterface</title>
<path fill="none" stroke="black" stroke-dasharray="1,5" d="M562.478,-574.519C527.146,-578.105 476.569,-583.239 432.664,-587.696"/>
<polygon fill="none" stroke="black" points="432.132,-584.232 422.536,-588.724 432.839,-591.196 432.132,-584.232"/>
</g>
<!-- \\Pluginkollektiv\\AntispamBee\\PostProcessor\\SaveReason -->
<g id="node31" class="node"><title>\\Pluginkollektiv\\AntispamBee\\PostProcessor\\SaveReason</title>
<polygon fill="none" stroke="black" points="650,-534 566,-534 566,-498 650,-498 650,-534"/>
<text text-anchor="middle" x="608" y="-513.2" font-family="Courier,monospace" font-size="11.00">SaveReason</text>
</g>
<!-- \\Pluginkollektiv\\AntispamBee\\PostProcessor\\SaveReason&#45;&gt;\\Pluginkollektiv\\AntispamBee\\PostProcessor\\PostProcessorInterface -->
<g id="edge15" class="edge"><title>\\Pluginkollektiv\\AntispamBee\\PostProcessor\\SaveReason&#45;&gt;\\Pluginkollektiv\\AntispamBee\\PostProcessor\\PostProcessorInterface</title>
<path fill="none" stroke="black" stroke-dasharray="1,5" d="M565.744,-527.786C549.586,-532.452 530.903,-537.909 514,-543 478.78,-553.608 439.649,-565.789 407.525,-575.894"/>
<polygon fill="none" stroke="black" points="406.279,-572.617 397.792,-578.959 408.382,-579.293 406.279,-572.617"/>
</g>
<!-- \\Pluginkollektiv\\AntispamBee\\PostProcessor\\SpamLogger -->
<g id="node32" class="node"><title>\\Pluginkollektiv\\AntispamBee\\PostProcessor\\SpamLogger</title>
<polygon fill="none" stroke="black" points="650,-696 566,-696 566,-660 650,-660 650,-696"/>
<text text-anchor="middle" x="608" y="-675.2" font-family="Courier,monospace" font-size="11.00">SpamLogger</text>
</g>
<!-- \\Pluginkollektiv\\AntispamBee\\PostProcessor\\SpamLogger&#45;&gt;\\Pluginkollektiv\\AntispamBee\\PostProcessor\\PostProcessorInterface -->
<g id="edge16" class="edge"><title>\\Pluginkollektiv\\AntispamBee\\PostProcessor\\SpamLogger&#45;&gt;\\Pluginkollektiv\\AntispamBee\\PostProcessor\\PostProcessorInterface</title>
<path fill="none" stroke="black" stroke-dasharray="1,5" d="M565.744,-666.214C549.586,-661.548 530.903,-656.091 514,-651 478.78,-640.392 439.649,-628.211 407.525,-618.106"/>
<polygon fill="none" stroke="black" points="408.382,-614.707 397.792,-615.041 406.279,-621.383 408.382,-614.707"/>
</g>
<!-- \\Pluginkollektiv\\AntispamBee\\PostProcessor\\NullPostProcessor -->
<g id="node33" class="node"><title>\\Pluginkollektiv\\AntispamBee\\PostProcessor\\NullPostProcessor</title>
<polygon fill="none" stroke="black" points="673.5,-642 542.5,-642 542.5,-606 673.5,-606 673.5,-642"/>
<text text-anchor="middle" x="608" y="-621.2" font-family="Courier,monospace" font-size="11.00">NullPostProcessor</text>
</g>
<!-- \\Pluginkollektiv\\AntispamBee\\PostProcessor\\NullPostProcessor&#45;&gt;\\Pluginkollektiv\\AntispamBee\\PostProcessor\\PostProcessorInterface -->
<g id="edge17" class="edge"><title>\\Pluginkollektiv\\AntispamBee\\PostProcessor\\NullPostProcessor&#45;&gt;\\Pluginkollektiv\\AntispamBee\\PostProcessor\\PostProcessorInterface</title>
<path fill="none" stroke="black" stroke-dasharray="1,5" d="M542.269,-617.43C509.377,-614.091 468.841,-609.976 432.788,-606.317"/>
<polygon fill="none" stroke="black" points="433.051,-602.826 422.748,-605.298 432.344,-609.79 433.051,-602.826"/>
</g>
<!-- \\Pluginkollektiv\\AntispamBee\\Option\\GenericOption -->
<g id="node35" class="node"><title>\\Pluginkollektiv\\AntispamBee\\Option\\GenericOption</title>
<polygon fill="none" stroke="black" points="660,-454 556,-454 556,-418 660,-418 660,-454"/>
<text text-anchor="middle" x="608" y="-433.2" font-family="Courier,monospace" font-size="11.00">GenericOption</text>
</g>
<!-- \\Pluginkollektiv\\AntispamBee\\Option\\OptionInterface -->
<g id="node38" class="node"><title>\\Pluginkollektiv\\AntispamBee\\Option\\OptionInterface</title>
<polygon fill="none" stroke="black" points="399,-400 281,-400 281,-364 399,-364 399,-400"/>
<text text-anchor="middle" x="340" y="-379.2" font-family="Courier,monospace" font-size="11.00">OptionInterface</text>
</g>
<!-- \\Pluginkollektiv\\AntispamBee\\Option\\GenericOption&#45;&gt;\\Pluginkollektiv\\AntispamBee\\Option\\OptionInterface -->
<g id="edge18" class="edge"><title>\\Pluginkollektiv\\AntispamBee\\Option\\GenericOption&#45;&gt;\\Pluginkollektiv\\AntispamBee\\Option\\OptionInterface</title>
<path fill="none" stroke="black" stroke-dasharray="1,5" d="M555.713,-425.588C513.94,-417.108 454.608,-405.063 408.897,-395.784"/>
<polygon fill="none" stroke="black" points="409.563,-392.348 399.067,-393.788 408.17,-399.208 409.563,-392.348"/>
</g>
<!-- \\Pluginkollektiv\\AntispamBee\\Option\\OptionFactory -->
<g id="node36" class="node"><title>\\Pluginkollektiv\\AntispamBee\\Option\\OptionFactory</title>
<polygon fill="none" stroke="black" points="660,-400 556,-400 556,-364 660,-364 660,-400"/>
<text text-anchor="middle" x="608" y="-379.2" font-family="Courier,monospace" font-size="11.00">OptionFactory</text>
</g>
<!-- \\Pluginkollektiv\\AntispamBee\\Option\\NullOption -->
<g id="node37" class="node"><title>\\Pluginkollektiv\\AntispamBee\\Option\\NullOption</title>
<polygon fill="none" stroke="black" points="650,-346 566,-346 566,-310 650,-310 650,-346"/>
<text text-anchor="middle" x="608" y="-325.2" font-family="Courier,monospace" font-size="11.00">NullOption</text>
</g>
<!-- \\Pluginkollektiv\\AntispamBee\\Option\\NullOption&#45;&gt;\\Pluginkollektiv\\AntispamBee\\Option\\OptionInterface -->
<g id="edge19" class="edge"><title>\\Pluginkollektiv\\AntispamBee\\Option\\NullOption&#45;&gt;\\Pluginkollektiv\\AntispamBee\\Option\\OptionInterface</title>
<path fill="none" stroke="black" stroke-dasharray="1,5" d="M565.729,-336.378C523.954,-344.859 458.637,-358.119 409.165,-368.162"/>
<polygon fill="none" stroke="black" points="408.282,-364.77 399.178,-370.189 409.675,-371.63 408.282,-364.77"/>
</g>
<!-- \\Pluginkollektiv\\AntispamBee\\Logger\\FileLogger -->
<g id="node39" class="node"><title>\\Pluginkollektiv\\AntispamBee\\Logger\\FileLogger</title>
<polygon fill="none" stroke="black" points="650,-266 566,-266 566,-230 650,-230 650,-266"/>
<text text-anchor="middle" x="608" y="-245.2" font-family="Courier,monospace" font-size="11.00">FileLogger</text>
</g>
<!-- \\Pluginkollektiv\\AntispamBee\\Logger\\LoggerInterface -->
<g id="node40" class="node"><title>\\Pluginkollektiv\\AntispamBee\\Logger\\LoggerInterface</title>
<polygon fill="none" stroke="black" points="399,-266 281,-266 281,-230 399,-230 399,-266"/>
<text text-anchor="middle" x="340" y="-245.2" font-family="Courier,monospace" font-size="11.00">LoggerInterface</text>
</g>
<!-- \\Pluginkollektiv\\AntispamBee\\Logger\\FileLogger&#45;&gt;\\Pluginkollektiv\\AntispamBee\\Logger\\LoggerInterface -->
<g id="edge20" class="edge"><title>\\Pluginkollektiv\\AntispamBee\\Logger\\FileLogger&#45;&gt;\\Pluginkollektiv\\AntispamBee\\Logger\\LoggerInterface</title>
<path fill="none" stroke="black" stroke-dasharray="1,5" d="M565.729,-248C524.041,-248 458.91,-248 409.475,-248"/>
<polygon fill="none" stroke="black" points="409.178,-244.5 399.178,-248 409.178,-251.5 409.178,-244.5"/>
</g>
<!-- \\Pluginkollektiv\\AntispamBee\\SpamChecker -->
<g id="node41" class="node"><title>\\Pluginkollektiv\\AntispamBee\\SpamChecker</title>
<polygon fill="none" stroke="black" points="653.5,-212 562.5,-212 562.5,-176 653.5,-176 653.5,-212"/>
<text text-anchor="middle" x="608" y="-191.2" font-family="Courier,monospace" font-size="11.00">SpamChecker</text>
</g>
<!-- \\Pluginkollektiv\\AntispamBee\\Registrar -->
<g id="node42" class="node"><title>\\Pluginkollektiv\\AntispamBee\\Registrar</title>
<polygon fill="none" stroke="black" points="646.5,-158 569.5,-158 569.5,-122 646.5,-122 646.5,-158"/>
<text text-anchor="middle" x="608" y="-137.2" font-family="Courier,monospace" font-size="11.00">Registrar</text>
</g>
</g>
</svg>
